<svg xmlns="http://www.w3.org/2000/svg" viewBox="0 0 622.5 532.94"><defs><style>.cls-1{fill:#ee2325;}.cls-2{fill:#ee2626;}</style></defs><title>Asset 1</title><g id="Layer_2" data-name="Layer 2"><g id="Layer_1-2" data-name="Layer 1"><path class="cls-1" d="M175,269.14c-1.83,1.15-2.12,3.25-2.88,5-4.78,10.86-10.89,21-17.1,31.05s-12.7,19.76-19.83,29.11c-.09.13-.05.36-.12.92,23.05-5.45,44.51-.73,65.7,9.74-4.9,4.76-9.52,9.15-14,13.68a2.48,2.48,0,0,1-3.36.6c-9.82-4.62-19.74-9-30.41-11.28-8-1.7-16-2.74-24.25-1.79a4.35,4.35,0,0,0-3.29,1.78c-8.83,12.26-17.69,24.49-26.6,36.81.36.23.56.48.77.48,6.73.19,13.46.48,20.19.5,24.68.08,49.36-.06,74,.19a48.38,48.38,0,0,0,20.3-4.49,29.91,29.91,0,0,1,4.4-1.59c-8.77,8.8-18.69,15.84-31.22,17.62a75.75,75.75,0,0,1-18.24-.09c-.65-.06-1.3-.11-2-.11-22.71-.06-45.42-.07-68.12-.22-2.37,0-2.83.71-3.05,2.92-1,10.2,2.8,18.84,8.63,26.72,9.49,12.83,22.28,20.93,37.67,24.61,11.16,2.66,21.9.48,32-4.78.57-.29,1.91-.44.55-1.63-1-.88.26-1.3.73-1.64,3.82-2.83,7.69-5.58,11.53-8.38.75-.56,1.18-.59,1.75.27,2.14,3.23,5.22,3.58,8.67,2.63,6.28-1.75,11.4-5.6,16.45-9.43,5.87-4.45,11.45-9.3,17.23-13.87,1.68-1.34,2.09-2.47.62-4.22-2.27-2.72-3.67-6.05-6.16-8.64-3-3.16-6.49-4.61-10.82-3a3.67,3.67,0,0,1-1.1.18,8.72,8.72,0,0,1-1.28-.16c5.07-3.9,9.81-7.63,15.34-10.15,2.83-1.29,5.52.14,8.35,4,2.31,3.17,4.75,6.25,6.9,9.53,1,1.59,1.73,1.43,3,.4,4.93-4,9.52-8.45,15-11.66a22.65,22.65,0,0,1,13.38-3.22,7.41,7.41,0,0,1,2.67.68,2.47,2.47,0,0,1,.43,4.45c-3,2.23-6,4.4-9.28,6.77-1.11-2.45-2.77-4.41-5.67-4.54-4-.19-7.06,2.18-10.08,4.35-2.12,1.53-4,3.38-6,5.1-.43.37-1.39.56-.74,1.45,3.39,4.64,5.67,10.15,10.76,13.47,4.5,2.93,9.22,2.39,14,1.19,1.06-.26,2-1.06,3.19-.84,0,.24.11.5.06.53-6.89,3.8-13.9,7.28-21.92,8-4.83.43-8.47-1.55-11.44-5.22a40.15,40.15,0,0,1-4.71-6.91c-1.12-2.19-2.07-1.74-3.61-.47-7.18,6-14.35,12-21.7,17.74a93.76,93.76,0,0,1-21.6,12.86c-2.85,1.19-5.85,2-8.93,1.09-1.71-.51-2.6.3-3.6,1.35-5.24,5.52-10.93,10.52-17.71,14-14.4,7.43-29,9.5-44.26,2-10.47-5.12-18.35-13.06-25.36-22a56.52,56.52,0,0,1-10.93-24.25c-.14-.71-.43-1.39-.82-2.62-24.49,35.53-37.69,74-35.6,117.17-1.66-7.23-2.08-14.51-4.07-21.45C36,506,34.2,500.71,33.54,495a73.37,73.37,0,0,1,.44-21.5c2.86-15.83,5.22-31.74,8.28-47.52,2.33-12,6.45-23.51,11.2-34.78,7.39-17.54,18.18-32.9,30-47.69,7.34-9.19,15.15-18,22.34-27.29,9.53-12.32,19.74-24.07,29.29-36.37,4.74-6.11,9.73-12,14.15-18.39,8.26-11.85,16.28-23.88,22-37.21,5.46-12.75,10.75-25.59,14.83-38.87,3.16-10.3,4.44-20.9,4.86-31.64a199.06,199.06,0,0,0,0-22.12,185.61,185.61,0,0,0-6.4-35.08c-3.09-11.44-6.62-22.79-12.73-33-7-11.78-16.36-20.89-30.71-23-7.07-1-12.69,2.24-17.67,6.78a39,39,0,0,0-9.42,14.09c-3.22,7.7-7.75,15-8.51,23.51-.44,4.93-.31,9.92-.38,14.88-.21,15-.14,30-.66,45-.37,10.77-.09,21.55-.53,32.3-.46,11.24-.17,22.49-.59,33.71-.41,10.87-.07,21.75-.56,32.59-.53,11.64.23,23.36-2.13,34.9-3,14.5-8.24,28.21-14,41.76-3.19,7.44-5.93,15.1-10,22.12-5.62,9.62-12.9,17.32-24.19,20.33C41.78,365.32,26,360.06,19.65,349.8c-8.6-13.92-13.63-29.1-18-44.63-.43-1.52-.86-3-1.17-4.59-.09-.46-.85-1.06-.17-1.4s1,.32,1.33,1a100.58,100.58,0,0,0,6.75,11.57A87.37,87.37,0,0,0,20.42,325c4.43,4.13,9.51,5,15.24,3,10.41-3.7,17.92-10.41,22.37-20.57a237.06,237.06,0,0,0,15.28-48.62,46.38,46.38,0,0,0,.83-8.32c.14-8.26-.12-16.53.24-24.77.45-10.3.16-20.61.58-30.89.39-9.65.13-19.3.55-28.93.43-10.21.12-20.42.57-30.61.43-9.83.15-19.67.56-29.49.43-10,.35-20,.51-30,.14-9.33,2.67-18.19,5.57-27C85.93,39,89,29.24,93.93,20.15c2.77-5.14,5.92-10,10.48-13.73,8.64-7.08,18.27-8,28.57-4.19,14.2,5.3,24.25,15.45,32.24,27.85,6.35,9.85,10.52,20.73,14,31.88,4.08,12.95,8.47,25.82,11.64,39a206.73,206.73,0,0,1,5,30,177.07,177.07,0,0,1,.92,22.66c-.62,15.28-1.15,30.56-3.16,45.74-.53,4-.37,8-1.38,11.93-.47.48-.34,1.09-.34,1.67s-.15,1.14-.23,1.71c-.46.48-.33,1.08-.34,1.66l-.24,1.72-.32,1.1c-2,1,.18,2.78-.78,4l-.31,1.2a21.12,21.12,0,0,1-1.32,5.54c-.5.39-.41,1-.46,1.5l-.78,3-.29.55c-.1.65,0,1.38-.56,1.88l0,.14c-2.45,9.89-6.51,19.19-10.32,28.58a6.59,6.59,0,0,0-.92,3.17Z"/><path class="cls-2" d="M415.57,377.13c2.1-7.35,4.06-14.18,6-21,3-10.45,6.24-20.84,8.88-31.38,3.95-15.77,9-31.26,12.23-47.21a5.42,5.42,0,0,0-3.25-6.61,17.87,17.87,0,0,0-9.1-1.72c1.1-1.32,2.47-1.62,3.72-2.11,5.71-2.27,11.46-4.44,17.11-6.83a4,4,0,0,1,5.19,1.2,13.28,13.28,0,0,1,2.84,4.77c.64,2.12,1.53,1.88,3.18,1.12,12.53-5.8,25.64-9,39.53-8.63a27.85,27.85,0,0,1,9,1.81c7.33,2.76,9,9.15,8.46,15.4-1.1,12.79-9,20.37-20.08,25.68-15.64,7.52-32.5,10.16-49.32,13a3.08,3.08,0,0,0-2.89,2.59c-4.12,15.17-8.32,30.31-12.38,45.49a4.39,4.39,0,0,1-2,2.79C427.14,369.24,421.61,373,415.57,377.13ZM472,306c1.41-.07,2.83,0,4.21-.22,8.62-1.24,16.35-4,19.25-13.29a31.3,31.3,0,0,0,.67-17.59c-1.77-6.7-5.88-10.06-12.75-10.18-6.53-.11-12.37,2.34-18.21,4.75-3.93,1.63-6.78,4.07-7.76,8.7-1.45,6.8-3.9,13.37-5.21,20.23-.43,2.23.5,3.37,2.37,4.1A50.51,50.51,0,0,0,472,306Z"/><path class="cls-2" d="M394.28,307.2c3-4,6.39-7.71,7.86-12.74,1.85-6.38.52-11.9-3.45-17s-8.79-9.36-15.55-10.56c-6.47-1.15-11.85,1.31-17.32,4.51-6.1,3.56-6,9.81-7.86,15.26-1.31,3.88-2.29,7.86-4.69,11.31-2.58,3.72-6.67,5.58-10,8.42a68.74,68.74,0,0,1-6.84,4.57,138.05,138.05,0,0,1,3.88-15.73c4-14.24,8.82-28.22,12.41-42.57a96.36,96.36,0,0,0,2.37-16.55c.26-3.66-1.37-6.86-3-10-3.67-7.21-5-5.15,2.59-11.22,4.69-3.76,10-6.44,15.38-9.15a19,19,0,0,1,2.34-.94c4.46-1.48,6.42.4,5.91,5.07-1.69,15.47-7,30-11.3,44.82-1.46,5-2.85,9.95-4.26,14.9.79.56,1.28,0,1.81-.33A127.47,127.47,0,0,1,388.78,257c10-3.84,19.62-2.64,27.87,4.38s9.7,18.65,1.82,28.52c-6.33,7.94-14.85,13.18-23.82,17.69A4.73,4.73,0,0,0,394.28,307.2Z"/><path class="cls-2" d="M622.5,300.51c-7.44,4.27-15,7.92-23.81,8-7.37.05-15.41-3.89-16.21-12.9-.18-2-1.13-1.36-2.11-.62-9.29,7-20,10.68-31.26,12.84a33.72,33.72,0,0,1-15.28-.25c-4.46-1.2-7.45-4-8.5-8.4-2.83-11.81,0-20.24,11.75-28.16,14.34-9.68,30.39-13.4,47.59-12.28a16.69,16.69,0,0,1,8.86,3c2.1,1.51,4.51.92,6.78.56a34.26,34.26,0,0,0,4.85-1.52c-.88,3-1.66,5.78-2.54,8.55a68.64,68.64,0,0,0-3.07,14.7c-.79,9.1,5,14.62,14.07,15.74C616.56,300.16,619.52,300.06,622.5,300.51Zm-77.71-14a33.24,33.24,0,0,0,.39,5.3c1.56,6.87,7.26,8.85,14.46,8.22,6.93-.6,13-3.74,19.22-6.47,2.36-1,3-2.49,3.35-4.76q.79-5.94,2-11.83c.89-4.43.5-5.34-3.75-7.13a41.3,41.3,0,0,0-20.05-2.65c-7.25.67-12.72,4-14.77,11.55A30.35,30.35,0,0,0,544.79,286.47Z"/><path class="cls-2" d="M175,269.14v-.43c3.23-2,6.45-4,9.7-6a31.45,31.45,0,0,1,9.22-3.93c5.07-1.2,7.13.85,6.19,5.95A86,86,0,0,1,196.5,277a66.8,66.8,0,0,0-2.66,9.67c-1.16,6.28,2.91,11.12,9.25,11.49,8.72.49,16.28-3.44,24.26-5.79,1-.3,1-1.2,1.22-2,1.68-6.86,3.28-13.75,5.14-20.56.66-2.42.44-3.6-2.35-3.52a11.89,11.89,0,0,1-2.81-.63c5-2.71,9.4-6.11,14.93-7.22.63-.13,1.27-.31,1.91-.38,4.61-.43,6.25,1.39,5.36,5.9A110.47,110.47,0,0,1,247,277.64c-1.58,4.68-3.17,9.35-2.88,14.42.21,3.61,2.36,5.89,6,6,2.66.07,5.33,0,8.46,0-2.32,2.38-5.09,3-7.51,4.25a44.67,44.67,0,0,1-12.93,4.41c-6.24,1-10.81-2.68-11.23-9,0-.55-.06-1.1-.1-1.85-2.45.76-4.75,1.45-7,2.18-10.58,3.34-21.14,6.72-31.73,10-3.68,1.15-6.44-.74-9.09-3a8.93,8.93,0,0,1-3-10.07c1.58-5.24,3.3-10.44,5-15.65a11.56,11.56,0,0,0,.19-5.29C180.55,269.92,179.52,269.16,175,269.14Z"/><path class="cls-2" d="M271.77,477.92c2.63-9.29,5.27-17.9,7.48-26.61,4.16-16.4,9.55-32.46,13.06-49,.73-3.49-.22-5.25-3.59-6.38a24.34,24.34,0,0,0-2.71-.66c-.79-.19-1.6-.35-2.6-.56,4.89-1.92,9.53-3.76,14.19-5.56,3.7-1.43,5.13-1.06,6.6,2.5,1.13,2.73,2.42,2.78,4.83,1.7a64.28,64.28,0,0,1,28.78-5.91,19.28,19.28,0,0,1,5.73,1c8.08,2.79,9.16,10.15,6.12,18.15-2.68,7-8.43,10.89-15,13.93-10.11,4.7-20.87,7.13-31.79,8.54-5.08.66-7.27,2.5-8.4,7.54-2.25,10.06-5.36,19.92-8.06,29.87A3.76,3.76,0,0,1,285,468.7Zm43.17-54.48c17.2.28,22-13.76,18-25.54-1.26-3.7-4.1-5.36-7.78-5.88-5.21-.73-9.86,1.41-14.63,2.84a9.67,9.67,0,0,0-7.18,8.09c-.83,4.37-2.11,8.65-3.21,13-.78,3-.2,4.36,2.77,5.37A37.38,37.38,0,0,0,314.94,423.44Z"/><path class="cls-2" d="M336.34,260.11c-5.89,3.13-11.46,6.09-17,9a1.34,1.34,0,0,1-1.75-.15c-5-4.74-11.47-4.88-17.77-5.46a19.66,19.66,0,0,0-7.77.77c-1.78.57-3.82,1.26-4.23,3.28s1.43,3.39,3,4.36c4.46,2.84,9.57,4,14.64,5.25,4.69,1.15,9.55,1.58,14.11,3.35a24.71,24.71,0,0,1,5.87,3.19c3.55,2.65,3.71,6.06.71,9.33a28.69,28.69,0,0,1-11.47,7.35c-9,3.36-17.89,7-27.31,9.09-8.92,2-17.76,2.57-26.31-1.61-1-.49-2.47-.81-2.6-1.93-.16-1.35,1.5-1.39,2.4-1.89,4.14-2.32,8.33-4.53,12.46-6.85,1.28-.71,2.17-1.15,2.81.78a5.77,5.77,0,0,0,3.58,3.38c6.92,2.53,13.92,3.35,21,.52a7.93,7.93,0,0,0,3.66-2.95c2-2.92,1.38-5.4-1.65-7.23-4.54-2.73-9.69-3.19-14.74-4-5.34-.82-10.73-1.39-15.84-3.28-4.05-1.5-4.56-3.16-2.58-7,2.49-4.82,6.83-7.72,11.26-10.22,9.53-5.37,19.59-9.67,30.51-11.23C319.75,254.8,328,256.61,336.34,260.11Z"/><path class="cls-2" d="M548.9,416.52c-9.79,6.39-19.92,11.08-31.55,11.64-5.51.27-10.71-.73-14.49-5.15-4.2-4.9-4.06-12.4.1-18.17a36.63,36.63,0,0,1,12.3-10.4,77,77,0,0,1,11-5.49c.33-.12.66-.37.47-1.07-9-1.85-18.12-2-27.46.78a10.79,10.79,0,0,1,3.79-2.8q2.24-1.19,4.53-2.24c1.44-.65,2.94-1.18,4.37-1.84A41.94,41.94,0,0,1,533.71,378c8.07.8,16.12,1.7,24.25,1.7a66.12,66.12,0,0,0,11.39-1c-5.88,4.36-12.13,7.85-19.52,8.87-2.88.39-5.79,1-8.66.67-10-1.09-16.34,4.15-21.45,11.89-2.87,4.34-2.87,9-2,13.76.92,5.12,4.7,6.44,10.54,6.69,6.23.26,12.13-1.68,18-3.6C547,416.7,547.64,415.92,548.9,416.52Z"/><path class="cls-2" d="M404.51,385.18a28,28,0,0,1,6.87.63c7.07,1.63,9.66,6.06,7.55,13-1.85,6.12-6,10.7-10.78,14.41-8.51,6.62-17.78,12.06-28.64,14a25.59,25.59,0,0,1-17.09-2.64c-9.35-5.08-9.2-15.12-2.91-21.94,6.05-6.57,14.1-9.66,22.08-12.78C388.81,387,396.28,385,404.51,385.18Zm-.71,16.39c.92-6.67-7.88-14.45-15.81-12.59-8.17,1.91-13.68,7-16.33,15-1.8,5.4-.07,10.5,4.4,13.28a25.2,25.2,0,0,0,12.62,4,9.47,9.47,0,0,0,6.25-2C400.76,414.75,403.15,408.6,403.8,401.57Z"/><path class="cls-2" d="M612.62,388.37c-3.54,1.95-6.79,3.77-10.07,5.54-2.12,1.13-3.87,1.1-6.29-.18a23.66,23.66,0,0,0-17.37-2c-1.3.34-2.88.66-3.06,2.45s1.16,2.5,2.33,3.23c3.79,2.36,8.1,3.28,12.41,4.17a54.53,54.53,0,0,1,10.73,3c6.31,2.73,6.86,7.36,1.14,11.19-3.88,2.59-8.33,4.15-12.73,5.72-8.27,2.95-16.49,6.07-25.53,5.59a21.26,21.26,0,0,1-11.64-3.89l11.76-6.35c.72-.38,1.2-.86,2.05.19,3.56,4.42,8.65,4.79,13.75,4.54a11,11,0,0,0,7.39-2.91c2.37-2.32,2-4.82-.91-6.33-3.37-1.71-7.07-2.32-10.78-2.85A68.55,68.55,0,0,1,564,407.22c-3.48-1.13-4.22-2.92-2.43-6.14a15.1,15.1,0,0,1,6.23-5.94c7.65-4.07,15.37-7.93,24.06-9.48C598.94,384.39,605.59,385.67,612.62,388.37Z"/><path class="cls-2" d="M498.06,387.58c-2.46,5.56-6.48,9.66-11.21,13.1C479,406.4,471,405.84,464,399.16c-.88-.84-1.73-1.72-2.59-2.58-2.15-2.14-3.05-2.15-5.35-.08-3.1,2.79-4,6.68-5,10.44-1.17,4.21-2,8.51-3,12.77a3.55,3.55,0,0,1-1.73,2.67c-4.22,2.36-8.37,4.85-12.85,7.47,2.16-7.74,4.74-15,6.45-22.49.28-1.27.6-2.54.8-3.82.35-2.37-.93-4.1-3.29-4.77-2.55-.73-5-.18-7.44.37-1.16.26-2.24,1-3.91.59,7.72-4.65,15.06-9.37,23.35-12.27,3-1,4.41,0,4.86,3,0,.1,0,.19,0,.28.55,3.83.57,3.87,4,2.3,4.5-2.08,9-3.87,14.13-4.08a13.38,13.38,0,0,1,6.43,1.31c6.49,3.12,12.34,1.85,17.9-2.18.3-.21.62-.4.93-.59C497.72,387.51,497.83,387.56,498.06,387.58Z"/><path class="cls-2" d="M394.65,307.6c-.27.39-.61,1-1.08.55-.28-.29.4-.66.71-.95A4.73,4.73,0,0,1,394.65,307.6Z"/><path class="cls-2" d="M191.9,213c0-.58-.13-1.19.34-1.67C192.3,211.9,192.55,212.53,191.9,213Z"/><path class="cls-2" d="M191.33,216.35c0-.58-.12-1.18.34-1.66C191.75,215.28,192,215.9,191.33,216.35Z"/><path class="cls-2" d="M187.9,231.37c0-.53,0-1.11.46-1.5A1.43,1.43,0,0,1,187.9,231.37Z"/><path class="cls-2" d="M190.77,219.17c.1-.37.21-.74.32-1.1C191.21,218.5,191.24,218.91,190.77,219.17Z"/><path class="cls-2" d="M189.68,224.33l.31-1.2C190.11,223.58,190.18,224,189.68,224.33Z"/><path class="cls-2" d="M186.83,234.94l.29-.55Z"/><polygon class="cls-2" points="186.23 236.96 186.27 236.82 186.37 236.89 186.23 236.96"/></g></g></svg>