<svg xmlns="http://www.w3.org/2000/svg" viewBox="0 0 48 32" fill="none">
  <rect width="48" height="32" rx="4" fill="#1A1F71"/>
  <path d="M19.5 21H17L18.9 11H21.4L19.5 21Z" fill="white"/>
  <path d="M29.2 11.2C28.7 11 27.9 10.8 26.9 10.8C24.4 10.8 22.6 12.1 22.6 14C22.6 15.4 23.9 16.1 24.9 16.6C25.9 17.1 26.2 17.4 26.2 17.8C26.2 18.4 25.5 18.7 24.8 18.7C23.8 18.7 23.3 18.6 22.5 18.2L22.2 18.1L21.9 20C22.5 20.3 23.6 20.5 24.7 20.5C27.4 20.5 29.1 19.2 29.2 17.2C29.2 16.1 28.5 15.3 27 14.5C26.1 14 25.6 13.7 25.6 13.3C25.6 12.9 26 12.5 26.9 12.5C27.7 12.5 28.3 12.7 28.7 12.8L28.9 12.9L29.2 11.2Z" fill="white"/>
  <path d="M33 11H31.1C30.5 11 30.1 11.2 29.8 11.8L26.2 21H28.9L29.4 19.5H32.7L33 21H35.4L33 11ZM30.1 17.6L31.3 14.1L32 17.6H30.1Z" fill="white"/>
  <path d="M16.7 11L14.2 17.8L13.9 16.3C13.4 14.7 11.9 12.9 10.2 12L12.5 21H15.2L19.4 11H16.7Z" fill="white"/>
  <path d="M13.1 11H9L9 11.2C12.2 12 14.3 13.8 15 16L14.2 11.8C14.1 11.2 13.7 11 13.1 11Z" fill="#F9A533"/>
</svg>
